<?xml version="1.0" encoding="UTF-8"?>
<svg width="900px" height="170px" viewBox="0 0 900 170" version="1.1" xmlns="http://www.w3.org/2000/svg" xmlns:xlink="http://www.w3.org/1999/xlink">
    <!-- Generator: Sketch 52.6 (67491) - http://www.bohemiancoding.com/sketch -->
    <title>share-overlay</title>
    <desc>Created with Sketch.</desc>
    <g id="share-overlay" stroke="none" stroke-width="1" fill="none" fill-rule="evenodd">
        <path d="M384.925781,112.833292 L384.925781,91.4934485 C384.925781,84.8137276 382.664085,81.4739173 378.140625,81.4739173 C375.749988,81.4739173 373.822273,82.4992976 372.357422,84.5500891 C370.892571,86.6008806 370.160156,89.2317137 370.160156,92.4426673 L370.160156,112.833292 L360.28125,112.833292 L360.28125,83.3020423 C360.28125,81.2629696 360.251953,79.5930644 360.193359,78.2922766 C360.134765,76.9914889 360.070313,75.8254849 360,74.7942298 L369.421875,74.7942298 C369.492188,75.2395445 369.585937,76.4289857 369.703125,78.3625891 C369.820313,80.2961926 369.878906,81.6262574 369.878906,82.3528235 L370.019531,82.3528235 C371.355475,79.446559 373.03124,77.3372051 375.046875,76.0246985 C377.06251,74.7121919 379.46483,74.0559485 382.253906,74.0559485 C386.285176,74.0559485 389.378895,75.2981236 391.535156,77.782511 C393.691417,80.2668984 394.769531,83.8996746 394.769531,88.6809485 L394.769531,112.833292 L384.925781,112.833292 Z M440.402344,93.7786048 C440.402344,99.9426981 438.691423,104.776634 435.269531,108.280558 C431.847639,111.784482 427.113311,113.536417 421.066406,113.536417 C415.136689,113.536417 410.484392,111.778622 407.109375,108.26298 C403.734358,104.747337 402.046875,99.9192605 402.046875,93.7786048 C402.046875,87.6613867 403.734358,82.8508879 407.109375,79.3469641 C410.484392,75.8430404 415.207001,74.0911048 421.277344,74.0911048 C427.488312,74.0911048 432.228499,75.7844472 435.498047,79.1711829 C438.767594,82.5579186 440.402344,87.4270105 440.402344,93.7786048 Z M430.066406,93.7786048 C430.066406,89.2551446 429.328132,85.9739275 427.851563,83.9348548 C426.374993,81.8957821 424.230483,80.876261 421.417969,80.876261 C415.417939,80.876261 412.417969,85.1769993 412.417969,93.7786048 C412.417969,98.0208135 413.150383,101.249297 414.615234,103.464152 C416.080085,105.679006 418.195299,106.786417 420.960938,106.786417 C427.03128,106.786417 430.066406,102.450523 430.066406,93.7786048 Z M457.980469,113.466105 C455.074204,113.466105 452.835945,112.675097 451.265625,111.093058 C449.695305,109.511019 448.910156,107.114558 448.910156,103.903605 L448.910156,81.4739173 L444.09375,81.4739173 L444.09375,74.7942298 L449.402344,74.7942298 L452.496094,65.8645423 L458.683594,65.8645423 L458.683594,74.7942298 L465.890625,74.7942298 L465.890625,81.4739173 L458.683594,81.4739173 L458.683594,101.23173 C458.683594,103.083302 459.035153,104.448522 459.738281,105.327433 C460.44141,106.206344 461.531243,106.645792 463.007813,106.645792 C463.781254,106.645792 464.882805,106.481731 466.3125,106.153605 L466.3125,112.270792 C463.874988,113.067671 461.097672,113.466105 457.980469,113.466105 Z M487.792969,113.536417 C482.07419,113.536417 477.679703,111.843075 474.609375,108.456339 C471.539047,105.069603 470.003906,100.1302 470.003906,93.6379798 C470.003906,87.3566984 471.562484,82.5286216 474.679688,79.1536048 C477.796891,75.7785879 482.214815,74.0911048 487.933594,74.0911048 C493.394559,74.0911048 497.566392,75.9016335 500.449219,79.5227454 C503.332046,83.1438572 504.773438,88.4465386 504.773438,95.4309485 L504.773438,95.7121985 L480.375,95.7121985 C480.375,99.415342 481.06054,102.210236 482.431641,104.096964 C483.802741,105.983692 485.753894,106.927042 488.285156,106.927042 C491.777361,106.927042 493.980464,105.415339 494.894531,102.391886 L504.210938,103.20048 C501.515612,110.091139 496.04301,113.536417 487.792969,113.536417 Z M487.792969,80.313761 C485.472645,80.313761 483.685553,81.1223467 482.431641,82.7395423 C481.177728,84.3567378 480.515625,86.618434 480.445313,89.5246985 L495.210938,89.5246985 C495.023437,86.4543707 494.285163,84.1516593 492.996094,82.6164954 C491.707025,81.0813315 489.972667,80.313761 487.792969,80.313761 Z M544.324219,101.723917 C544.324219,105.403623 542.818374,108.292266 539.806641,110.389933 C536.794907,112.4876 532.628933,113.536417 527.308594,113.536417 C522.082005,113.536417 518.080092,112.710254 515.302734,111.057902 C512.525377,109.40555 510.679692,106.83331 509.765625,103.341105 L518.449219,102.040324 C518.941409,103.84502 519.79101,105.122351 520.998047,105.872355 C522.205084,106.622359 524.308579,106.997355 527.308594,106.997355 C530.074233,106.997355 532.089837,106.645796 533.355469,105.942667 C534.6211,105.239539 535.253906,104.137987 535.253906,102.63798 C535.253906,101.419224 534.744146,100.452436 533.724609,99.7375891 C532.705073,99.0227418 530.976575,98.4192322 528.539063,97.9270423 C522.96091,96.8254743 519.199228,95.8000939 517.253906,94.8508704 C515.308584,93.9016469 513.826177,92.6711904 512.806641,91.1594641 C511.787104,89.6477378 511.277344,87.7903345 511.277344,85.5871985 C511.277344,81.9543678 512.67772,79.124318 515.478516,77.0969641 C518.279311,75.0696102 522.246068,74.0559485 527.378906,74.0559485 C531.902366,74.0559485 535.541002,74.934846 538.294922,76.6926673 C541.048842,78.4504885 542.765622,80.9934319 543.445313,84.3215735 L534.691406,85.235636 C534.410155,83.6887533 533.718756,82.5344679 532.617188,81.7727454 C531.515619,81.0110228 529.769543,80.6301673 527.378906,80.6301673 C525.035145,80.6301673 523.27735,80.9289924 522.105469,81.5266516 C520.933588,82.1243109 520.347656,83.126254 520.347656,84.532511 C520.347656,85.634079 520.798824,86.5071172 521.701172,87.1516516 C522.60352,87.7961861 524.121083,88.3293839 526.253906,88.751261 C529.230484,89.3606391 531.873035,89.9875859 534.181641,90.6321204 C536.490246,91.2766549 538.34179,92.0442253 539.736328,92.9348548 C541.130866,93.8254842 542.244136,94.9680509 543.076172,96.3625891 C543.908207,97.7571274 544.324219,99.5442189 544.324219,101.723917 Z M552.164063,112.833292 L552.164063,102.110636 L562.324219,102.110636 L562.324219,112.833292 L552.164063,112.833292 Z M596.953125,112.833292 C596.859375,112.481728 596.748048,111.596971 596.619141,110.178995 C596.490234,108.76102 596.425781,107.583297 596.425781,106.645792 L596.285156,106.645792 C594.152333,111.239565 590.097686,113.536417 584.121094,113.536417 C579.691384,113.536417 576.269543,111.807919 573.855469,108.35087 C571.441394,104.893822 570.234375,100.059886 570.234375,93.8489173 C570.234375,87.5441982 571.505847,82.6751063 574.048828,79.2414954 C576.59181,75.8078845 580.195289,74.0911048 584.859375,74.0911048 C587.554701,74.0911048 589.88085,74.6535991 591.837891,75.7786048 C593.794932,76.9036104 595.300776,78.5793749 596.355469,80.8059485 L596.425781,80.8059485 L596.355469,74.548136 L596.355469,60.6614173 L606.234375,60.6614173 L606.234375,104.536417 C606.234375,106.880179 606.328124,109.645776 606.515625,112.833292 L596.953125,112.833292 Z M596.496094,93.6028235 C596.496094,89.5012405 595.810554,86.343069 594.439453,84.1282141 C593.068353,81.9133593 591.046888,80.8059485 588.375,80.8059485 C585.726549,80.8059485 583.757819,81.8782034 582.46875,84.0227454 C581.179681,86.1672874 580.535156,89.4426452 580.535156,93.8489173 C580.535156,102.47396 583.124974,106.786417 588.304688,106.786417 C590.906263,106.786417 592.921868,105.643851 594.351563,103.358683 C595.781257,101.073515 596.496094,97.8215946 596.496094,93.6028235 Z M626.027344,113.466105 C623.121079,113.466105 620.88282,112.675097 619.3125,111.093058 C617.74218,109.511019 616.957031,107.114558 616.957031,103.903605 L616.957031,81.4739173 L612.140625,81.4739173 L612.140625,74.7942298 L617.449219,74.7942298 L620.542969,65.8645423 L626.730469,65.8645423 L626.730469,74.7942298 L633.9375,74.7942298 L633.9375,81.4739173 L626.730469,81.4739173 L626.730469,101.23173 C626.730469,103.083302 627.082028,104.448522 627.785156,105.327433 C628.488285,106.206344 629.578118,106.645792 631.054688,106.645792 C631.828129,106.645792 632.92968,106.481731 634.359375,106.153605 L634.359375,112.270792 C631.921863,113.067671 629.144547,113.466105 626.027344,113.466105 Z M640.125,112.833292 L640.125,102.110636 L650.285156,102.110636 L650.285156,112.833292 L640.125,112.833292 Z M660.269531,67.938761 L660.269531,60.6614173 L670.148438,60.6614173 L670.148438,67.938761 L660.269531,67.938761 Z M660.269531,112.833292 L660.269531,74.7942298 L670.148438,74.7942298 L670.148438,112.833292 L660.269531,112.833292 Z M704.917969,112.833292 L704.917969,91.4934485 C704.917969,84.8137276 702.656273,81.4739173 698.132813,81.4739173 C695.742176,81.4739173 693.81446,82.4992976 692.349609,84.5500891 C690.884758,86.6008806 690.152344,89.2317137 690.152344,92.4426673 L690.152344,112.833292 L680.273438,112.833292 L680.273438,83.3020423 C680.273438,81.2629696 680.244141,79.5930644 680.185547,78.2922766 C680.126953,76.9914889 680.0625,75.8254849 679.992188,74.7942298 L689.414063,74.7942298 C689.484375,75.2395445 689.578124,76.4289857 689.695313,78.3625891 C689.812501,80.2961926 689.871094,81.6262574 689.871094,82.3528235 L690.011719,82.3528235 C691.347663,79.446559 693.023427,77.3372051 695.039063,76.0246985 C697.054698,74.7121919 699.457017,74.0559485 702.246094,74.0559485 C706.277364,74.0559485 709.371083,75.2981236 711.527344,77.782511 C713.683605,80.2668984 714.761719,83.8996746 714.761719,88.6809485 L714.761719,112.833292 L704.917969,112.833292 Z M724.113281,112.833292 L724.113281,102.110636 L734.273438,102.110636 L734.273438,112.833292 L724.113281,112.833292 Z M753.996094,113.466105 C751.089829,113.466105 748.85157,112.675097 747.28125,111.093058 C745.71093,109.511019 744.925781,107.114558 744.925781,103.903605 L744.925781,81.4739173 L740.109375,81.4739173 L740.109375,74.7942298 L745.417969,74.7942298 L748.511719,65.8645423 L754.699219,65.8645423 L754.699219,74.7942298 L761.90625,74.7942298 L761.90625,81.4739173 L754.699219,81.4739173 L754.699219,101.23173 C754.699219,103.083302 755.050778,104.448522 755.753906,105.327433 C756.457035,106.206344 757.546868,106.645792 759.023438,106.645792 C759.796879,106.645792 760.89843,106.481731 762.328125,106.153605 L762.328125,112.270792 C759.890613,113.067671 757.113297,113.466105 753.996094,113.466105 Z M777.972656,82.3879798 C779.3086,79.4817152 780.984365,77.3723613 783,76.0598548 C785.015635,74.7473482 787.417955,74.0911048 790.207031,74.0911048 C794.238301,74.0911048 797.33202,75.3332798 799.488281,77.8176673 C801.644542,80.3020547 802.722656,83.9348309 802.722656,88.7161048 L802.722656,112.833292 L792.878906,112.833292 L792.878906,91.5286048 C792.878906,84.8488839 790.61721,81.5090735 786.09375,81.5090735 C783.703113,81.5090735 781.775398,82.5344539 780.310547,84.5852454 C778.845696,86.6360369 778.113281,89.26687 778.113281,92.4778235 L778.113281,112.833292 L768.234375,112.833292 L768.234375,60.6614173 L778.113281,60.6614173 L778.113281,74.8996985 C778.113281,77.4543988 778.019532,79.9504676 777.832031,82.3879798 L777.972656,82.3879798 Z" id="notes.dt.in.th" fill="#8B8685"></path>
        <rect id="Rectangle" fill="#D7FC70" x="360" y="125.083292" width="540" height="6"></rect>
    </g>
</svg>